<?xml version="1.0" standalone="no"?>
<!DOCTYPE svg PUBLIC "-//W3C//DTD SVG 20010904//EN"
 "http://www.w3.org/TR/2001/REC-SVG-20010904/DTD/svg10.dtd">
<svg version="1.0" xmlns="http://www.w3.org/2000/svg"
 width="289.000000pt" height="289.000000pt" viewBox="0 0 289.000000 289.000000"
 preserveAspectRatio="xMidYMid meet">
<metadata>
Created by potrace 1.14, written by Peter Selinger 2001-2017
</metadata>
<g transform="translate(0.000000,289.000000) scale(0.100000,-0.100000)"
fill="#000000" stroke="none">
<path d="M1408 2780 c-25 -16 -59 -45 -76 -65 -18 -19 -38 -35 -44 -35 -6 0
-9 -3 -6 -6 3 -3 -27 -39 -68 -80 -41 -42 -74 -77 -74 -80 0 -3 -12 -17 -28
-32 -15 -15 -38 -43 -52 -62 -14 -19 -32 -42 -40 -50 -34 -36 -70 -85 -70 -96
0 -6 -6 -14 -14 -17 -7 -3 -27 -26 -45 -51 -17 -26 -35 -52 -41 -59 -29 -34
-102 -143 -155 -232 -32 -55 -65 -107 -72 -116 -7 -9 -10 -19 -6 -22 3 -4 1
-7 -5 -7 -7 0 -18 -15 -27 -32 -8 -18 -30 -60 -49 -93 -56 -98 -163 -315 -171
-345 0 -3 -15 -36 -33 -73 -18 -38 -32 -73 -32 -78 0 -5 -4 -17 -10 -27 -15
-28 -39 -85 -49 -117 -5 -17 -24 -66 -41 -110 -35 -91 -71 -193 -75 -215 -2
-8 -11 -42 -21 -75 -10 -33 -18 -62 -19 -65 0 -3 -7 -28 -14 -56 -7 -29 -13
-58 -14 -65 -2 -8 -6 -20 -10 -26 -5 -7 -6 -13 -3 -13 3 0 1 -12 -5 -28 -6
-15 -13 -60 -15 -100 -2 -41 -8 -82 -13 -91 -18 -34 -1 -72 29 -65 11 2 29 6
40 8 11 3 25 8 32 12 6 4 48 11 92 15 45 5 109 12 143 17 75 10 98 2 106 -36
8 -38 34 -45 100 -25 29 8 59 17 67 18 8 2 16 4 18 5 1 2 10 4 20 5 59 8 86
20 101 47 9 16 25 31 36 34 53 13 326 21 710 19 447 -3 624 -11 627 -29 9 -66
15 -73 79 -86 32 -7 62 -10 66 -7 3 4 12 2 18 -3 17 -14 127 -19 143 -7 17 13
15 37 -3 37 -8 0 -12 6 -9 14 6 15 116 14 189 -1 22 -5 51 -9 65 -8 14 0 27
-3 30 -7 3 -3 17 -8 32 -10 15 -2 30 -7 34 -11 13 -12 94 -8 100 6 6 18 -11
145 -36 252 -11 50 -22 101 -25 115 -9 40 -13 55 -15 55 -1 0 -4 13 -6 30 -3
16 -14 55 -25 87 -10 32 -19 66 -19 76 0 10 -4 22 -8 28 -5 5 -19 43 -32 84
-13 41 -26 80 -29 85 -3 6 -6 15 -8 20 -1 6 -11 35 -23 65 -12 30 -23 62 -25
70 -1 8 -10 33 -20 55 -10 22 -18 45 -20 50 -1 6 -8 24 -15 40 -7 17 -14 32
-15 35 -8 22 -35 82 -82 180 -30 63 -67 140 -81 170 -14 30 -29 57 -33 60 -4
3 -13 17 -18 30 -6 14 -20 39 -30 56 -10 17 -36 63 -56 103 -21 40 -43 78 -49
84 -15 17 -33 46 -48 77 -7 14 -15 27 -18 30 -3 3 -22 28 -41 55 -18 28 -38
53 -44 57 -6 5 -6 8 -1 8 6 0 -4 15 -20 33 -17 17 -42 51 -57 75 -15 23 -34
50 -41 60 -76 94 -126 152 -153 180 -18 18 -33 37 -33 42 0 18 -238 252 -249
246 -6 -4 -11 -3 -11 1 0 19 -41 10 -82 -17z"/>
</g>
</svg>
